<svg width="24" height="24" viewBox="0 0 24 24" fill="none" xmlns="http://www.w3.org/2000/svg">
<mask id="mask0" mask-type="alpha" maskUnits="userSpaceOnUse" x="0" y="0" width="24" height="24">
<circle cx="12" cy="12" r="12" fill="#C4C4C4"/>
</mask>
<g mask="url(#mask0)">
<path fill-rule="evenodd" clip-rule="evenodd" d="M0 24H36V0H0V24Z" fill="#FF1612"/>
<path fill-rule="evenodd" clip-rule="evenodd" d="M13.9184 4L13.3936 4.73523L12.5015 4.42013L13.0262 5.15536L12.5015 5.89059L13.3411 5.62801L13.8659 6.36324V5.47046L14.7055 5.20788L13.8659 4.9453L13.9184 4ZM16.8571 6.78337L16.0175 7.09847L15.4927 6.36324V7.25602L14.6006 7.57112L15.4402 7.8337V8.72648L15.965 7.99125L16.8047 8.25383L16.2799 7.5186L16.8571 6.78337ZM17.0671 10.7746H16.1749L15.9125 9.93435L15.5977 10.7746H14.7055L15.4402 11.2998L15.1254 12.14L15.8601 11.6149L16.5948 12.14L16.3324 11.2998L17.0671 10.7746ZM14.7055 13.558L13.8659 13.2954V12.4026L13.3411 13.1379L12.5015 12.8753L13.0262 13.6105L12.5015 14.2932L13.3411 13.9781L13.8659 14.7133V13.8206L14.7055 13.558ZM7.46356 5.15536L6.67638 7.67615H4L6.1516 9.25164L5.31195 11.7724L7.46356 10.1969L9.61516 11.7724L8.82799 9.25164L10.9796 7.67615H8.30321L7.46356 5.15536Z" fill="#FEDF00"/>
</g>
</svg>
