<svg width="24" height="24" viewBox="0 0 24 24" fill="none" xmlns="http://www.w3.org/2000/svg">
<mask id="mask0" mask-type="alpha" maskUnits="userSpaceOnUse" x="0" y="0" width="24" height="24">
<circle cx="12" cy="12" r="12" fill="#C4C4C4"/>
</mask>
<g mask="url(#mask0)">
<path fill-rule="evenodd" clip-rule="evenodd" d="M-1.55115 0H9.01486V7.04987L-1.55115 0ZM14.9851 0H25.5249L14.9851 7.04987V0ZM29.979 2.97113V8.03675H22.3824L29.979 2.97113ZM29.979 15.9633V21.0289L22.3824 15.9633H29.979ZM25.5249 24H14.9851V16.9501L25.5249 24ZM9.01486 24H-1.55115L9.01486 16.9501V24ZM-6 21.0289V15.9633H1.59662L-6 21.0289ZM-6 8.03675V2.97113L1.59662 8.03675H-6Z" fill="#0541BC"/>
<path d="M29.979 21.0289L22.3824 15.9633H29.979V8.03675H22.3824L29.979 2.97113V0H25.5249L14.9589 7.04987V0H11.9895H9.01486V7.04987L-1.55115 0H-6V2.97113L1.59662 8.03675H-6V15.9633H1.59662L-6 21.0289V24H-1.55115L9.01486 16.9501V24H11.9895H14.9589V16.9501L25.5249 24H29.979V21.0289Z" fill="#F4F4F4"/>
<path fill-rule="evenodd" clip-rule="evenodd" d="M13.8467 0V9.52231H29.979V14.4724H13.8467V24H10.1323V14.4724H-6V9.52231H10.1323V0H13.8467ZM29.979 22.8871L19.6019 15.9633H16.2652L28.3317 24H30V22.8871H29.979ZM19.6019 8.03675L29.979 1.11286V0H28.3107L16.2442 8.03675H19.6019ZM7.71378 8.03675L-4.33168 0H-6V1.11286L4.37715 8.03675H7.71378ZM4.37715 15.9633L-6 22.8871V24H-4.33168L7.73477 15.9633H4.37715Z" fill="#FF403D"/>
</g>
</svg>
