<svg width="24" height="24" viewBox="0 0 24 24" fill="none" xmlns="http://www.w3.org/2000/svg">
<mask id="mask0" mask-type="alpha" maskUnits="userSpaceOnUse" x="0" y="0" width="24" height="24">
<circle cx="12" cy="12" r="12" fill="#C4C4C4"/>
</mask>
<g mask="url(#mask0)">
<path d="M-6 0H30V24H-6V0Z" fill="#F6F6F6"/>
<path fill-rule="evenodd" clip-rule="evenodd" d="M16.6706 14.0744C15.8834 15.86 14.0991 17.1203 12 17.1203C9.16618 17.1203 6.85715 14.8096 6.85715 11.9737C6.85715 11.1335 7.06706 10.3457 7.43441 9.6105C6.9621 12.1313 8.90379 13.6543 10.7405 12.919C11.7376 12.4989 11.9475 11.8162 12.6822 11.291C14.5714 9.97812 16.9854 11.5536 16.6706 14.0744Z" fill="#0437A0"/>
<path fill-rule="evenodd" clip-rule="evenodd" d="M12 6.87965C14.8338 6.87965 17.1428 9.19037 17.1428 12.0263C17.1428 12.7615 16.9854 13.4442 16.723 14.0744C17.0379 11.5536 14.5714 9.97812 12.7347 11.3961C12 11.9737 11.7901 12.6039 10.793 13.0241C8.95626 13.7593 7.01457 12.2363 7.48687 9.71554C8.27405 8.03501 10.0058 6.87965 12 6.87965Z" fill="#FF1612"/>
<path d="M2.39649 8.71772L5.23031 4.46389L5.91252 4.93654L3.0787 9.19037L2.39649 8.71772ZM3.44605 9.40044L6.27987 5.14661L6.96208 5.61925L4.12826 9.87308L3.44605 9.40044ZM1.34692 7.98249L4.18074 3.72866L4.86296 4.20131L2.02914 8.45514L1.34692 7.98249Z" fill="black"/>
<path d="M20.9213 9.19037L18.0875 4.93654L18.7697 4.46389L21.6035 8.71772L20.9213 9.19037ZM21.9708 8.45514L20.6589 6.45952L21.3411 5.98687L22.6531 7.98249L21.9708 8.45514ZM20.449 6.14442L19.137 4.20131L19.8192 3.72866L21.1312 5.67177L20.449 6.14442ZM19.8717 9.87308L18.5598 7.87746L19.242 7.40481L20.5539 9.40044L19.8717 9.87308ZM18.2974 7.56236L16.9854 5.61925L17.6676 5.14661L18.9796 7.08971L18.2974 7.56236Z" fill="black"/>
<path d="M20.5539 14.6521L19.242 16.6477L18.5597 16.1751L19.8717 14.1794L20.5539 14.6521ZM19.032 16.9628L17.7201 18.9059L17.0379 18.4333L18.3498 16.4902L19.032 16.9628ZM22.7055 16.0175L21.3936 18.0131L20.7113 17.5405L22.0233 15.5449L22.7055 16.0175ZM21.1312 18.3807L19.8192 20.3239L19.137 19.8512L20.449 17.9081L21.1312 18.3807ZM21.6035 15.3348L20.2915 17.3304L19.6093 16.8578L20.9213 14.9147L21.6035 15.3348ZM20.0816 17.6455L18.7697 19.5886L18.0874 19.116L19.3994 17.1729L20.0816 17.6455Z" fill="black"/>
<path d="M3.13118 14.8621L4.44313 16.8053L3.76092 17.3304L2.44896 15.3873L3.13118 14.8621ZM4.18074 14.1794L7.01456 18.4333L6.33235 18.9059L3.49853 14.6521L4.18074 14.1794ZM2.02914 15.5449L4.86296 19.7987L4.18074 20.2713L1.34692 16.0175L2.02914 15.5449ZM4.70552 17.1729L6.01748 19.116L5.33526 19.5886L3.97083 17.6455L4.70552 17.1729Z" fill="black"/>
</g>
</svg>
